HIERARCHY
ROOT hip
{
  OFFSET -21.7737 81.1014 -16.2708
  CHANNELS 6 Xposition Yposition Zposition Zrotation Xrotation Yrotation
  JOINT abdomen
  {
    OFFSET 0 20.6881 -0.73152
    CHANNELS 3 Zrotation Xrotation Yrotation
    JOINT chest
    {
      OFFSET 0 11.7043 -0.48768
      CHANNELS 3 Zrotation Xrotation Yrotation
      JOINT neck
      {
        OFFSET 0 22.1894 -2.19456
        CHANNELS 3 Zrotation Xrotation Yrotation
        JOINT head
        {
          OFFSET -0.24384 7.07133 1.2192
          CHANNELS 3 Zrotation Xrotation Yrotation
          JOINT leftEye
          {
            OFFSET 4.14528 8.04674 8.04672
            CHANNELS 3 Zrotation Xrotation Yrotation
            End Site
            {
              OFFSET 1 0 0
            }
          }
          JOINT rightEye
          {
            OFFSET -3.6576 8.04674 8.04672
            CHANNELS 3 Zrotation Xrotation Yrotation
            End Site
            {
              OFFSET 1 0 0
            }
          }
        }
      }
      JOINT rCollar
      {
        OFFSET -2.68224 19.2634 -4.8768
        CHANNELS 3 Zrotation Xrotation Yrotation
        JOINT rShldr
        {
          OFFSET -8.77824 -1.95073 1.46304
          CHANNELS 3 Zrotation Xrotation Yrotation
          JOINT rForeArm
          {
            OFFSET -28.1742 -1.7115 0.48768
            CHANNELS 3 Zrotation Xrotation Yrotation
            JOINT rHand
            {
              OFFSET -22.5879 0.773209 7.07136
              CHANNELS 3 Zrotation Xrotation Yrotation
              JOINT rThumb1
              {
                OFFSET -1.2192 -0.487915 3.41376
                CHANNELS 3 Zrotation Xrotation Yrotation
                JOINT rThumb2
                {
                  OFFSET -3.37035 -0.52449 3.41376
                  CHANNELS 3 Zrotation Xrotation Yrotation
                  End Site
                  {
                    OFFSET -1.78271 -1.18214 1.43049
                  }
                }
              }
              JOINT rIndex1
              {
                OFFSET -7.75947 0.938293 5.60832
                CHANNELS 3 Zrotation Xrotation Yrotation
                JOINT rIndex2
                {
                  OFFSET -2.54057 -0.884171 1.56538
                  CHANNELS 3 Zrotation Xrotation Yrotation
                  End Site
                  {
                    OFFSET -1.62519 -0.234802 1.16502
                  }
                }
              }
              JOINT rMid1
              {
                OFFSET -8.24714 1.18213 3.41376
                CHANNELS 3 Zrotation Xrotation Yrotation
                JOINT rMid2
                {
                  OFFSET -3.10165 -0.590103 1.0647
                  CHANNELS 3 Zrotation Xrotation Yrotation
                  End Site
                  {
                    OFFSET -2.48547 -0.328903 0.83742
                  }
                }
              }
              JOINT rRing1
              {
                OFFSET -8.82822 0.546677 1.51678
                CHANNELS 3 Zrotation Xrotation Yrotation
                JOINT rRing2
                {
                  OFFSET -2.60934 -0.819778 -0.0198488
                  CHANNELS 3 Zrotation Xrotation Yrotation
                  End Site
                  {
                    OFFSET -2.33842 -0.294052 0.168128
                  }
                }
              }
              JOINT rPinky1
              {
                OFFSET -8.27202 -0.0477905 -0.4584
                CHANNELS 3 Zrotation Xrotation Yrotation
                JOINT rPinky2
                {
                  OFFSET -1.82734 -0.647385 -0.700984
                  CHANNELS 3 Zrotation Xrotation Yrotation
                  End Site
                  {
                    OFFSET -1.69225 -0.51767 -0.607171
                  }
                }
              }
            }
          }
        }
      }
      JOINT lCollar
      {
        OFFSET 2.68224 19.2634 -4.8768
        CHANNELS 3 Zrotation Xrotation Yrotation
        JOINT lShldr
        {
          OFFSET 8.77824 -1.95073 1.46304
          CHANNELS 3 Zrotation Xrotation Yrotation
          JOINT lForeArm
          {
            OFFSET 28.1742 -1.7115 0.48768
            CHANNELS 3 Zrotation Xrotation Yrotation
            JOINT lHand
            {
              OFFSET 22.5879 0.773209 7.07136
              CHANNELS 3 Zrotation Xrotation Yrotation
              JOINT lThumb1
              {
                OFFSET 1.2192 -0.487915 3.41376
                CHANNELS 3 Zrotation Xrotation Yrotation
                JOINT lThumb2
                {
                  OFFSET 3.37035 -0.52449 3.41376
                  CHANNELS 3 Zrotation Xrotation Yrotation
                  End Site
                  {
                    OFFSET 1.78271 -1.18214 1.43049
                  }
                }
              }
              JOINT lIndex1
              {
                OFFSET 7.75947 0.938293 5.60832
                CHANNELS 3 Zrotation Xrotation Yrotation
                JOINT lIndex2
                {
                  OFFSET 2.54057 -0.884171 1.56538
                  CHANNELS 3 Zrotation Xrotation Yrotation
                  End Site
                  {
                    OFFSET 1.62519 -0.234802 1.16502
                  }
                }
              }
              JOINT lMid1
              {
                OFFSET 8.24714 1.18213 3.41376
                CHANNELS 3 Zrotation Xrotation Yrotation
                JOINT lMid2
                {
                  OFFSET 3.10165 -0.590103 1.0647
                  CHANNELS 3 Zrotation Xrotation Yrotation
                  End Site
                  {
                    OFFSET 2.48547 -0.328903 0.83742
                  }
                }
              }
              JOINT lRing1
              {
                OFFSET 8.82822 0.546677 1.51678
                CHANNELS 3 Zrotation Xrotation Yrotation
                JOINT lRing2
                {
                  OFFSET 2.60934 -0.819778 -0.0198488
                  CHANNELS 3 Zrotation Xrotation Yrotation
                  End Site
                  {
                    OFFSET 2.33842 -0.294052 0.168128
                  }
                }
              }
              JOINT lPinky1
              {
                OFFSET 8.27202 -0.0477905 -0.4584
                CHANNELS 3 Zrotation Xrotation Yrotation
                JOINT lPinky2
                {
                  OFFSET 1.82734 -0.647385 -0.700984
                  CHANNELS 3 Zrotation Xrotation Yrotation
                  End Site
                  {
                    OFFSET 1.69225 -0.51767 -0.607171
                  }
                }
              }
            }
          }
        }
      }
    }
  }
  JOINT rButtock
  {
    OFFSET -8.77824 4.35084 1.2192
    CHANNELS 3 Zrotation Xrotation Yrotation
    JOINT rThigh
    {
      OFFSET 0 -1.70687 -2.19456
      CHANNELS 3 Zrotation Xrotation Yrotation
      JOINT rShin
      {
        OFFSET 0 -36.8199 0.73152
        CHANNELS 3 Zrotation Xrotation Yrotation
        JOINT rFoot
        {
          OFFSET 0.73152 -45.1104 -5.12064
          CHANNELS 3 Zrotation Xrotation Yrotation
          End Site
          {
            OFFSET -1.1221 -3.69964 12.103
          }
        }
      }
    }
  }
  JOINT lButtock
  {
    OFFSET 8.77824 4.35084 1.2192
    CHANNELS 3 Zrotation Xrotation Yrotation
    JOINT lThigh
    {
      OFFSET 0 -1.70687 -2.19456
      CHANNELS 3 Zrotation Xrotation Yrotation
      JOINT lShin
      {
        OFFSET 0 -36.8199 0.73152
        CHANNELS 3 Zrotation Xrotation Yrotation
        JOINT lFoot
        {
          OFFSET -0.73152 -45.1104 -5.12064
          CHANNELS 3 Zrotation Xrotation Yrotation
          End Site
          {
            OFFSET 1.1221 -3.69964 12.103
          }
        }
      }
    }
  }
}
MOTION
Frames:	8
Frame Time:	0.00833333
-24.477 83.7605 -10.8157 0.136948 -0.000168912 -0.00234556 -0.180152 -0.000587396 -0.00513811 -0.0496833 -0.000860761 -0.00860688 1.4629e-015 -1.59028e-015 -3.86484e-024 4.44159e-015 3.18055e-015 -6.21202e-018 -0 0 0 -0 0 0 7.93852e-016 2.32951e-018 1.98785e-016 1.74715e-014 -1.18028e-016 5.96354e-016 2.71689e-013 -7.95139e-014 -1.27222e-014 3.07243e-012 8.67447e-014 3.18055e-015 7.25119e-012 1.90561e-014 2.22639e-014 1.25234e-011 3.49861e-014 1.82882e-014 7.25564e-012 2.22639e-014 6.36111e-015 7.73091 5.47488 0.417314 7.25196e-012 1.90833e-014 2.22639e-014 2.90554 0.965183 0.102902 7.26321e-012 1.92821e-014 1.74931e-014 10.2786 0.731801 0.0259123 7.24928e-012 1.94809e-014 2.22639e-014 2.22167 -0.733487 -0.20892 6.97082e-016 2.32951e-018 -1.98785e-016 1.3543e-014 -4.16205e-016 -5.96354e-016 2.67266e-013 7.7526e-014 3.18055e-015 3.07224e-012 -8.98507e-014 9.54166e-015 7.24691e-012 -2.1644e-014 9.54166e-015 1.25179e-011 -3.18055e-014 3.10104e-014 7.24093e-012 -2.18663e-014 1.59028e-014 -7.73091 5.47488 -0.417314 7.24779e-012 -2.15681e-014 1.27222e-014 -2.90554 0.965183 -0.102902 7.24192e-012 -2.127e-014 1.59028e-014 -10.2786 0.731801 -0.0259123 7.24789e-012 -1.98785e-014 1.27222e-014 -2.22167 -0.733487 0.20892 -2.03217e-016 0 -3.88251e-019 0.373628 -2.84391 -0.0347153 -0.00665027 -0.401544 -0.0584332 -0.509781 3.24466 0.124544 2.03217e-016 0 3.88251e-019 -0.647711 -3.54408 0.0518656 0.00461013 0.866759 0.0396057 0.511776 2.67656 -0.11317 
-21.7255 81.1003 -16.2718 -0.0915578 3.18177 23.423 -0.408759 -2.71562 1.86318 0.310341 0.354205 0.540298 0.0467725 7.07555 5.98308 -3.94435 -10.4088 11.0548 -0 0 0 -0 0 0 -6.75915e-016 1.99002e-013 -3.00429e-014 -1.62965 -2.48232 15.5499 -10.8166 -7.69602 12.8077 0.0214249 -3.24903 -0.453976 -1.1253e-010 -3.50495e-011 -1.08746e-010 -1.92756e-010 -6.14598e-011 -1.88093e-010 -1.12526e-010 -3.50474e-011 -1.0876e-010 7.73091 5.47488 0.417314 -1.12528e-010 -3.50513e-011 -1.08745e-010 2.90554 0.965183 0.102902 -1.12518e-010 -3.50501e-011 -1.0875e-010 10.2786 0.731801 0.0259123 -1.12533e-010 -3.50496e-011 -1.08745e-010 2.22167 -0.733487 -0.20892 -7.85907e-016 1.99003e-013 -3.04339e-014 0.364587 -3.12094 -16.69 9.9078 -6.767 -12.2421 -0.00437353 1.46705 -0.205936 2.54388e-010 8.38002e-011 1.29446e-010 4.39757e-010 1.45528e-010 2.22336e-010 2.54384e-010 8.37997e-011 1.29453e-010 -7.73091 5.47488 -0.417314 2.54389e-010 8.38005e-011 1.29451e-010 -2.90554 0.965183 -0.102902 2.54383e-010 8.38008e-011 1.29453e-010 -10.2786 0.731801 -0.0259123 2.5439e-010 8.38026e-011 1.2945e-010 -2.22167 -0.733487 0.20892 -2.03217e-016 0 -3.88251e-019 -1.73065 -13.3721 -0.684785 0.00991178 13.616 0.139875 -1.30563 -0.0428395 -4.76091 2.03217e-016 0 3.88251e-019 1.88248 -13.3752 -0.871418 -0.0393 14.6959 -0.182306 1.26558 -3.10502 3.56431 
-21.7279 81.0996 -16.2787 -2.81792 4.76548 48.3288 -0.458683 -5.58652 3.84711 0.686998 0.762052 1.11868 -1.54541 14.2889 12.613 -3.63458 -20.1097 23.8977 -0 0 0 -0 0 0 -2.70647e-015 4.28985e-013 -6.73259e-014 -1.9729 -4.53773 32.0776 -18.5389 -14.5362 27.0382 -0.0122293 -6.67256 -0.937305 -2.28389e-010 -8.74418e-011 -2.30341e-010 -3.91098e-010 -1.52942e-010 -3.9819e-010 -2.28386e-010 -8.7441e-011 -2.30353e-010 7.73091 5.47488 0.417314 -2.28387e-010 -8.74457e-011 -2.30339e-010 2.90554 0.965183 0.102902 -2.28378e-010 -8.74434e-011 -2.30344e-010 10.2786 0.731801 0.0259123 -2.28393e-010 -8.74425e-011 -2.30337e-010 2.22167 -0.733487 -0.20892 -2.83175e-015 4.28988e-013 -6.77141e-014 -1.10144 -5.57616 -34.4597 17.269 -12.8799 -25.6955 0.00248314 3.01702 -0.423971 5.37724e-010 1.94522e-010 2.64398e-010 9.29549e-010 3.3762e-010 4.54046e-010 5.37721e-010 1.94521e-010 2.64405e-010 -7.73091 5.47488 -0.417314 5.37724e-010 1.94523e-010 2.64405e-010 -2.90554 0.965183 -0.102902 5.37719e-010 1.94523e-010 2.64406e-010 -10.2786 0.731801 -0.0259123 5.37728e-010 1.94525e-010 2.64404e-010 -2.22167 -0.733487 0.20892 -2.03217e-016 0 -3.88251e-019 -4.24006 -24.4975 -1.46525 -0.0901327 28.4337 0.388216 -2.75435 -3.46687 -9.94397 2.03217e-016 0 3.88251e-019 4.18242 -23.7583 -1.96439 0.045729 29.3131 -0.464001 2.87499 -9.14893 7.53551 
-21.7452 81.0998 -16.286 -6.21208 3.51304 70.4599 -0.331159 -8.11092 5.65024 1.00998 1.06395 1.63836 -4.45646 20.2724 19.032 0.582204 -26.3543 36.9744 -0 0 0 -0 0 0 -3.61545e-015 5.97002e-013 -9.05262e-014 -1.32778 -5.30185 46.8658 -22.5557 -18.4243 40.5382 -0.0920944 -9.74463 -1.37965 -3.52091e-010 -1.05187e-010 -3.26283e-010 -6.03315e-010 -1.84449e-010 -5.64317e-010 -3.5209e-010 -1.05187e-010 -3.26294e-010 7.73091 5.47488 0.417314 -3.52089e-010 -1.05192e-010 -3.2628e-010 2.90554 0.965183 0.102902 -3.52082e-010 -1.05189e-010 -3.26285e-010 10.2786 0.731801 0.0259123 -3.52097e-010 -1.05188e-010 -3.26278e-010 2.22167 -0.733487 -0.20892 -3.75189e-015 5.97006e-013 -9.0904e-014 -3.61713 -6.26532 -50.4055 21.4147 -16.569 -38.3235 0.018596 4.40091 -0.619431 7.48671e-010 2.51444e-010 3.88318e-010 1.29424e-009 4.36648e-010 6.66947e-010 7.48669e-010 2.51443e-010 3.88327e-010 -7.73091 5.47488 -0.417314 7.48671e-010 2.51445e-010 3.88327e-010 -2.90554 0.965183 -0.102902 7.48666e-010 2.51445e-010 3.88327e-010 -10.2786 0.731801 -0.0259123 7.48675e-010 2.51448e-010 3.88325e-010 -2.22167 -0.733487 0.20892 -2.03217e-016 0 -3.88251e-019 -6.78961 -34.409 -2.3387 -0.325666 41.649 0.702197 -4.56828 -6.40567 -14.6247 2.03217e-016 0 3.88251e-019 5.83354 -33.0022 -3.15658 0.287408 42.3514 -0.823026 5.0419 -14.4153 11.2623 
-21.7581 81.1001 -16.2841 -8.29813 0.972076 85.6426 -0.139815 -9.80208 6.95278 1.21611 1.10142 2.01098 -7.35941 24.0897 23.8901 5.43858 -28.6999 46.8364 -0 0 0 -0 0 0 -1.7205e-015 6.10105e-013 -7.85199e-014 -0.605755 -4.98234 57.1015 -24.1789 -19.435 50.1802 -0.178116 -11.9403 -1.70307 -4.95402e-010 -3.63124e-011 -3.58095e-010 -8.50219e-010 -6.6022e-011 -6.20519e-010 -4.95402e-010 -3.63132e-011 -3.58105e-010 7.73091 5.47488 0.417314 -4.954e-010 -3.63185e-011 -3.58092e-010 2.90554 0.965183 0.102902 -4.95394e-010 -3.63151e-011 -3.58096e-010 10.2786 0.731801 0.0259123 -4.95408e-010 -3.6314e-011 -3.58089e-010 2.22167 -0.733487 -0.20892 -1.85776e-015 6.1011e-013 -7.88678e-014 -5.66978 -5.60072 -61.4884 23.2642 -17.7822 -47.3595 0.0354955 5.36977 -0.756911 7.78645e-010 1.73866e-010 4.84659e-010 1.34616e-009 3.03015e-010 8.32825e-010 7.78644e-010 1.73865e-010 4.84669e-010 -7.73091 5.47488 -0.417314 7.78644e-010 1.73866e-010 4.84669e-010 -2.90554 0.965183 -0.102902 7.78639e-010 1.73867e-010 4.84668e-010 -10.2786 0.731801 -0.0259123 7.7865e-010 1.73869e-010 4.84666e-010 -2.22167 -0.733487 0.20892 -2.03217e-016 0 -3.88251e-019 -8.80446 -41.3034 -3.12561 -0.628732 50.86 1.03405 -6.11876 -8.35191 -17.9368 2.03217e-016 0 3.88251e-019 6.68823 -39.4304 -4.20045 0.614547 51.445 -1.20397 6.98862 -17.9862 14.0264 
-21.763 81.1005 -16.261 -8.91469 -0.360144 91.5293 -0.029334 -10.3109 7.55022 1.25358 0.611957 2.1888 -8.68812 25.5731 25.8699 7.78315 -28.9075 50.6958 -0 0 0 -0 0 0 5.48892e-015 3.38592e-013 1.73549e-015 -0.394762 -4.34622 60.9157 -24.6544 -19.4027 53.931 -0.223748 -12.9457 -1.8534 -6.99084e-010 2.01359e-010 -2.87508e-010 -1.20257e-009 3.4434e-010 -5.01692e-010 -6.99084e-010 2.01359e-010 -2.87518e-010 7.73091 5.47488 0.417314 -6.99082e-010 2.01354e-010 -2.87507e-010 2.90554 0.965183 0.102902 -6.99078e-010 2.01357e-010 -2.87509e-010 10.2786 0.731801 0.0259123 -6.9909e-010 2.01357e-010 -2.87502e-010 2.22167 -0.733487 -0.20892 5.3677e-015 3.38596e-013 1.46566e-015 -6.38048 -4.77425 -65.8514 23.8364 -17.9215 -50.9265 0.0435024 5.75689 -0.812019 4.57901e-010 -1.84908e-010 5.50342e-010 7.9187e-010 -3.1695e-010 9.46793e-010 4.579e-010 -1.84909e-010 5.50353e-010 -7.73091 5.47488 -0.417314 4.57901e-010 -1.84909e-010 5.50349e-010 -2.90554 0.965183 -0.102902 4.57896e-010 -1.84908e-010 5.50348e-010 -10.2786 0.731801 -0.0259123 4.57907e-010 -1.84905e-010 5.50344e-010 -2.22167 -0.733487 0.20892 -2.03217e-016 0 -3.88251e-019 -9.658 -43.989 -3.50492 -0.798755 54.4669 1.20989 -6.7835 -9.07658 -19.2349 2.03217e-016 0 3.88251e-019 6.94072 -41.9463 -4.69312 0.801565 55.0205 -1.40664 7.87696 -19.3763 15.1908 
-21.7726 81.1001 -16.25 -8.83542 -0.207347 90.9104 -0.0172088 -9.98419 7.63322 1.17234 -0.246354 2.22731 -8.51761 25.5921 25.6046 7.80765 -28.5234 50.1628 -0 0 0 -0 0 0 1.64283e-014 -1.32992e-013 1.29837e-013 -0.560615 -3.7494 60.181 -24.6065 -19.4224 53.5237 -0.227681 -13.0999 -1.87607 -9.44321e-010 5.57336e-010 -1.4438e-010 -1.62754e-009 9.59321e-010 -2.5885e-010 -9.44322e-010 5.57337e-010 -1.44391e-010 7.73091 5.47488 0.417314 -9.4432e-010 5.57335e-010 -1.44381e-010 2.90554 0.965183 0.102902 -9.44317e-010 5.57335e-010 -1.4438e-010 10.2786 0.731801 0.0259123 -9.44324e-010 5.57335e-010 -1.44373e-010 2.22167 -0.733487 -0.20892 1.6335e-014 -1.3299e-013 1.29679e-013 -6.14156 -4.2357 -65.479 23.7936 -17.9462 -50.5904 0.0427958 5.72856 -0.807977 -1.08719e-010 -7.40113e-010 5.93747e-010 -1.87419e-010 -1.27665e-009 1.02302e-009 -1.0872e-010 -7.40113e-010 5.93759e-010 -7.73091 5.47488 -0.417314 -1.08719e-010 -7.40115e-010 5.9375e-010 -2.90554 0.965183 -0.102902 -1.08724e-010 -7.40113e-010 5.93749e-010 -10.2786 0.731801 -0.0259123 -1.08713e-010 -7.40111e-010 5.93743e-010 -2.22167 -0.733487 0.20892 -2.03217e-016 0 -3.88251e-019 -9.54698 -43.674 -3.48417 -0.779226 54.0719 1.18988 -6.69848 -8.97826 -19.0693 2.03217e-016 0 3.88251e-019 6.92432 -41.6776 -4.66666 0.7799 54.6556 -1.38439 7.82142 -19.2663 15.1309 
-21.7829 81.1004 -16.2672 -8.47789 0.49537 87.6737 -0.045554 -9.38584 7.46374 1.06169 -1.00099 2.19242 -7.75786 24.9836 24.4494 6.86837 -27.9986 47.9289 -0 0 0 -0 0 0 2.66372e-014 -5.76226e-013 2.46742e-013 -0.788333 -3.23731 57.7275 -24.3477 -19.458 51.4455 -0.211782 -12.8574 -1.83897 -1.15351e-009 8.84587e-010 7.57852e-012 -1.99054e-009 1.52491e-009 -2.18693e-013 -1.15351e-009 8.84589e-010 7.56659e-012 7.73091 5.47488 0.417314 -1.15351e-009 8.84588e-010 7.57492e-012 2.90554 0.965183 0.102902 -1.15351e-009 8.84587e-010 7.5793e-012 10.2786 0.731801 0.0259123 -1.15351e-009 8.84586e-010 7.58502e-012 2.22167 -0.733487 -0.20892 2.65728e-014 -5.76226e-013 2.46675e-013 -5.61595 -3.88196 -63.1782 23.5052 -17.9245 -48.682 0.0385925 5.53544 -0.780467 -6.17922e-010 -1.22526e-009 6.15518e-010 -1.06734e-009 -2.11527e-009 1.06187e-009 -6.17923e-010 -1.22526e-009 6.15532e-010 -7.73091 5.47488 -0.417314 -6.17921e-010 -1.22526e-009 6.15518e-010 -2.90554 0.965183 -0.102902 -6.17926e-010 -1.22526e-009 6.15516e-010 -10.2786 0.731801 -0.0259123 -6.17916e-010 -1.22526e-009 6.15508e-010 -2.22167 -0.733487 0.20892 -2.03217e-016 0 -3.88251e-019 -9.0485 -42.1599 -3.29391 -0.684087 52.0765 1.09214 -6.31837 -8.54889 -18.3317 2.03217e-016 0 3.88251e-019 6.80191 -40.2925 -4.42497 0.674733 52.7119 -1.27221 7.37127 -18.5502 14.5551 
